<svg viewBox="0 0 8.467 8.467" xmlns="http://www.w3.org/2000/svg"><path d="M14 1a1 1 0 0 0-.95.684L12.036 4.73c-.41.145-.811.31-1.203.499L7.959 3.793a1 1 0 0 0-1.154.187L3.977 6.81a1 1 0 0 0-.188 1.154l1.434 2.867c-.189.394-.356.797-.5 1.21L1.68 13.054a1 1 0 0 0-.684.949v4a1 1 0 0 0 .684.95l3.052 1.017c.144.407.31.805.497 1.195l-1.44 2.879a1 1 0 0 0 .188 1.154l2.828 2.83a1 1 0 0 0 1.154.188l2.873-1.438c.392.187.792.353 1.201.496l1.018 3.051a1 1 0 0 0 .949.684h4a1 1 0 0 0 .95-.684l1.017-3.056c.406-.144.804-.309 1.193-.495l2.881 1.442a1 1 0 0 0 1.154-.188l2.828-2.83a1 1 0 0 0 .188-1.154l-1.436-2.871c.189-.393.354-.795.498-1.205l3.047-1.016a1 1 0 0 0 .684-.95v-4a1 1 0 0 0-.684-.948l-3.049-1.016c-.144-.41-.31-.81-.498-1.201l1.438-2.875a1 1 0 0 0-.188-1.154L25.195 3.98a1 1 0 0 0-1.154-.187l-2.865 1.432c-.395-.19-.8-.356-1.213-.5l-1.014-3.041A1 1 0 0 0 18 1Zm1.996 7.998c3.854 0 7.006 3.152 7.006 7.006s-3.152 6.998-7.006 6.998-6.998-3.144-6.998-6.998 3.144-7.006 6.998-7.006z" style="line-height:normal;font-variant-ligatures:normal;font-variant-position:normal;font-variant-caps:normal;font-variant-numeric:normal;font-variant-alternates:normal;font-feature-settings:normal;text-indent:0;text-align:start;text-decoration-line:none;text-decoration-style:solid;text-decoration-color:#000;text-transform:none;text-orientation:mixed;white-space:normal;shape-padding:0;isolation:auto;mix-blend-mode:normal;solid-color:#000;solid-opacity:1" transform="scale(.26458)" color="#000000" font-style="normal" font-variant="normal" font-weight="400" font-stretch="normal" font-size="medium" font-family="sans-serif" text-decoration="none" letter-spacing="normal" word-spacing="normal" writing-mode="lr-tb" direction="ltr" dominant-baseline="auto" baseline-shift="baseline" text-anchor="start" clip-rule="nonzero" display="inline" overflow="visible" visibility="visible" opacity="1" color-interpolation="sRGB" color-interpolation-filters="linearRGB" vector-effect="none" fill="#c4c4c4" fill-opacity="1" fill-rule="nonzero" stroke="none" stroke-width="1.99999988" stroke-linecap="round" stroke-linejoin="round" stroke-miterlimit="4" stroke-dasharray="none" stroke-dashoffset="0" stroke-opacity="1" paint-order="stroke fill markers" color-rendering="auto" image-rendering="auto" shape-rendering="auto" text-rendering="auto" enable-background="accumulate" class="fill-000000"></path></svg>